<?xml version="1.0" standalone="no"?>
<!DOCTYPE svg PUBLIC "-//W3C//DTD SVG 20010904//EN"
 "http://www.w3.org/TR/2001/REC-SVG-20010904/DTD/svg10.dtd">
<svg version="1.0" xmlns="http://www.w3.org/2000/svg"
 width="500.000000pt" height="500.000000pt" viewBox="0 0 500.000000 500.000000"
 preserveAspectRatio="xMidYMid meet">

<g transform="translate(0.000000,500.000000) scale(0.100000,-0.100000)"
fill="#000000" stroke="none">
<path d="M1338 3794 c-224 -40 -408 -181 -508 -389 -27 -55 -53 -122 -59 -150
-14 -64 -71 -589 -71 -655 0 -189 108 -410 261 -536 64 -52 182 -116 259 -138
31 -9 499 -64 1070 -126 558 -61 1018 -111 1023 -113 4 -1 112 -202 241 -446
128 -244 241 -452 250 -463 23 -27 74 -21 97 12 17 24 16 36 -68 505 -57 322
-81 481 -74 483 30 10 151 114 194 167 58 72 121 197 142 280 25 103 77 621
71 703 -14 174 -85 330 -206 452 -84 84 -197 150 -310 184 -32 10 -427 57
-930 112 -481 52 -956 103 -1054 114 -206 23 -224 23 -328 4z m972 -491 c50
-34 676 -538 698 -562 31 -34 31 -100 -2 -132 -13 -13 -209 -109 -436 -212
-354 -162 -417 -188 -446 -183 -35 7 -84 56 -84 84 -1 9 25 229 57 487 l57
470 32 33 c37 37 84 43 124 15z"/>
</g>
</svg>
